:FULLY-SPECIFIED
:FORCE-ALL-JOINTS-BE-3DOF
:DEGREES
501
root 10.604 16.9055 34.1124 5.80547 4.67152 5.24226
lfemur 19.554 1.32452 -28.0317
ltibia -4.61769e-14 0 0
lfoot -16.4401 4.20065 0
ltoes -4.60109 0 0
rfemur -42.5574 8.9839 10.8744
rtibia 27.8298 0 0
rfoot -24.2007 -13.6342 0
rtoes -28.3161 0 0
lowerback -7.92704 -5.3552 -6.17305
upperback 0.801209 -6.62579 1.45491
thorax 6.16213 -3.49416 4.06004
lowerneck -23.735 -2.62862 -10.0451
upperneck 23.6809 -3.22525 11.2668
head 12.0942 -0.883144 5.44021
lclavicle -1.92345e-15 9.42401e-16 0
lhumerus -15.6415 -25.5319 88.2983
lradius 35.1483 0 0
lwrist 6.92555 0 0
lhand -16.9049 -27.0269 0
lfingers 7.12502 0 0
lthumb 9.32678 2.73809 0
rclavicle -1.92345e-15 9.42401e-16 0
rhumerus -48.9505 5.28821 -83.5608
rradius 32.0287 0 0
rwrist -16.3044 0 0
rhand -29.3209 -22.1988 0
rfingers 7.12502 0 0
rthumb -2.66158 -52.161 0
502
root 10.5791 16.8843 34.2874 5.8969 4.79714 5.14497
lfemur 20.0977 1.14659 -27.7345
ltibia -3.71727e-14 0 0
lfoot -16.2523 4.20045 0
ltoes -5.71877 0 0
rfemur -42.5796 8.30546 11.5602
rtibia 28.6098 0 0
rfoot -24.2578 -13.5791 0
rtoes -27.9996 0 0
lowerback -7.87685 -5.35583 -6.05165
upperback 0.66998 -6.64588 1.49432
thorax 5.98714 -3.49397 4.04334
lowerneck -23.6758 -2.6576 -10.1491
upperneck 23.6033 -3.2386 11.3083
head 12.057 -0.894404 5.46788
lclavicle 1.52427e-14 -3.5781e-15 0
lhumerus -16.4926 -25.6611 88.8944
lradius 35.0457 0 0
lwrist 7.44878 0 0
lhand -15.928 -26.9705 0
lfingers 7.12502 0 0
lthumb 10.2691 2.74782 0
rclavicle 1.52427e-14 -3.5781e-15 0
rhumerus -49.1551 4.938 -83.3265
rradius 31.4429 0 0
rwrist -15.9446 0 0
rhand -29.0216 -23.5892 0
rfingers 7.12502 0 0
rthumb -2.37256 -53.5547 0
503
root 10.5542 16.863 34.4624 5.97605 4.91884 5.02656
lfemur 20.655 0.97414 -27.4136
ltibia -2.59156e-14 0 0
lfoot -15.9882 4.211 0
ltoes -6.90115 0 0
rfemur -42.6089 7.63288 12.2671
rtibia 29.4727 0 0
rfoot -24.3836 -13.4577 0
rtoes -27.3034 0 0
lowerback -7.78508 -5.34852 -5.90113
upperback 0.518137 -6.66052 1.53655
thorax 5.76343 -3.48903 4.01904
lowerneck -23.6139 -2.68422 -10.2467
upperneck 23.5447 -3.25003 11.3406
head 12.0261 -0.905608 5.49196
lclavicle 3.25887e-14 -7.56851e-15 0
lhumerus -17.4034 -25.7098 89.5091
lradius 34.8928 0 0
lwrist 7.9174 0 0
lhand -14.8563 -26.8825 0
lfingers 7.12502 0 0
lthumb 11.303 2.78366 0
rclavicle 3.25887e-14 -7.56851e-15 0
rhumerus -49.3889 4.57232 -83.0767
rradius 30.8483 0 0
rwrist -15.5516 0 0
rhand -28.719 -24.9646 0
rfingers 7.12502 0 0
rthumb -2.08028 -54.9332 0
504
root 10.5294 16.8417 34.6374 6.04017 5.00701 4.88459
lfemur 21.2217 0.837299 -27.0731
ltibia -1.32449e-14 0 0
lfoot -15.6302 4.23348 0
ltoes -8.16363 0 0
rfemur -42.6398 6.97822 12.9895
rtibia 30.3637 0 0
rfoot -24.5093 -13.3363 0
rtoes -26.6073 0 0
lowerback -7.67181 -5.32991 -5.72891
upperback 0.369002 -6.66256 1.58548
thorax 5.52775 -3.47758 3.99306
lowerneck -23.5818 -2.70719 -10.3188
upperneck 23.4966 -3.25782 11.352
head 12.0037 -0.914847 5.50496
lclavicle 4.68011e-14 -1.0322e-14 0
lhumerus -18.3259 -25.6209 90.1099
lradius 34.6672 0 0
lwrist 8.21335 0 0
lhand -13.829 -26.764 0
lfingers 7.12502 0 0
lthumb 12.2938 2.85015 0
rclavicle 4.68011e-14 -1.0322e-14 0
rhumerus -49.6055 4.19032 -82.7953
rradius 30.2529 0 0
rwrist -15.1103 0 0
rhand -28.4673 -26.0612 0
rfingers 7.12502 0 0
rthumb -1.8372 -56.0326 0
505
root 10.5045 16.8204 34.8124 6.08648 5.03204 4.71665
lfemur 21.7933 0.766176 -26.7169
ltibia 0 0 0
lfoot -15.1608 4.26908 0
ltoes -9.52164 0 0
rfemur -42.6668 6.3535 13.7218
rtibia 31.228 0 0
rfoot -24.5665 -13.2811 0
rtoes -26.2908 0 0
lowerback -7.5571 -5.2966 -5.54246
upperback 0.245892 -6.64484 1.64502
thorax 5.31684 -3.4579 3.9713
lowerneck -23.612 -2.72521 -10.3467
upperneck 23.4508 -3.26025 11.3313
head 11.9922 -0.920213 5.49939
lclavicle 5.45664e-14 -1.11319e-14 0
lhumerus -19.2118 -25.3373 90.664
lradius 34.3462 0 0
lwrist 8.21855 0 0
lhand -12.9857 -26.6163 0
lfingers 7.12502 0 0
lthumb 13.107 2.95184 0
rclavicle 5.45664e-14 -1.11319e-14 0
rhumerus -49.7588 3.79117 -82.4656
rradius 29.6645 0 0
rwrist -14.6055 0 0
rhand -28.3209 -26.6156 0
rfingers 7.12502 0 0
rthumb -1.6958 -56.5886 0
506
root 10.4803 16.8163 34.9926 6.10192 4.97906 4.50593
lfemur 22.4477 0.776201 -26.3353
ltibia -0.0932889 0 0
lfoot -14.5954 4.28557 0
ltoes -11.1649 0 0
rfemur -42.7108 5.73421 14.491
rtibia 32.1101 0 0
rfoot -24.5665 -13.2811 0
rtoes -26.2908 0 0
lowerback -7.42321 -5.24818 -5.31912
upperback 0.143971 -6.6099 1.72006
thorax 5.11382 -3.43042 3.94817
lowerneck -23.7019 -2.72375 -10.3013
upperneck 23.4116 -3.23981 11.2482
head 11.989 -0.915254 5.46147
lclavicle 5.52014e-14 -9.34284e-15 0
lhumerus -20.0906 -24.7972 91.1831
lradius 33.9324 0 0
lwrist 7.84072 0 0
lhand -12.2412 -26.4024 0
lfingers 7.12502 0 0
lthumb 13.8246 3.11922 0
rclavicle 5.52014e-14 -9.34284e-15 0
rhumerus -49.8723 3.39187 -82.0888
rradius 29.0734 0 0
rwrist -14.0417 0 0
rhand -28.316 -26.493 0
rfingers 7.12502 0 0
rthumb -1.69107 -56.4662 0
507
root 10.4561 16.8121 35.1728 6.08609 4.86877 4.25101
lfemur 23.2038 0.846368 -25.9233
ltibia -0.298524 0 0
lfoot -13.951 4.27557 0
ltoes -13.1189 0 0
rfemur -42.7804 5.10581 15.3069
rtibia 33.0628 0 0
rfoot -24.5665 -13.2811 0
rtoes -26.2908 0 0
lowerback -7.25052 -5.18727 -5.0484
upperback 0.0436157 -6.56397 1.80845
thorax 4.88591 -3.39664 3.91781
lowerneck -23.8249 -2.70094 -10.1918
upperneck 23.3863 -3.19439 11.1059
head 11.9916 -0.900207 5.39442
lclavicle 5.12202e-14 -5.38923e-15 0
lhumerus -21.0067 -24.0337 91.6957
lradius 33.4443 0 0
lwrist 7.15587 0 0
lhand -11.467 -26.1139 0
lfingers 7.12502 0 0
lthumb 14.5705 3.35475 0
rclavicle 5.12202e-14 -5.38923e-15 0
rhumerus -49.9879 2.9965 -81.6781
rradius 28.4713 0 0
rwrist -13.4319 0 0
rhand -28.4164 -25.8772 0
rfingers 7.12502 0 0
rthumb -1.78803 -55.8498 0
508
root 10.4319 16.808 35.353 6.05522 4.72495 3.97254
lfemur 23.9693 0.952139 -25.4916
ltibia -0.50376 0 0
lfoot -13.2128 4.2775 0
ltoes -15.1531 0 0
rfemur -42.8516 4.49532 16.1382
rtibia 34.0435 0 0
rfoot -24.5665 -13.2811 0
rtoes -26.2908 0 0
lowerback -7.05632 -5.11505 -4.756
upperback -0.0540329 -6.50543 1.90354
thorax 4.64603 -3.35635 3.88576
lowerneck -23.9777 -2.67447 -10.057
upperneck 23.3715 -3.14532 10.9428
head 12.0028 -0.883195 5.31629
lclavicle 4.41054e-14 -1.98739e-16 0
lhumerus -21.9344 -23.1327 92.1944
lradius 32.8834 0 0
lwrist 6.29833 0 0
lhand -10.7374 -25.7949 0
lfingers 7.12502 0 0
lthumb 15.2734 3.62094 0
rclavicle 4.41054e-14 -1.98739e-16 0
rhumerus -50.0863 2.5848 -81.2356
rradius 27.8684 0 0
rwrist -12.7738 0 0
rhand -28.5677 -24.9828 0
rfingers 7.12502 0 0
rthumb -1.9342 -54.9541 0
509
root 10.4077 16.8039 35.5333 6.02555 4.57138 3.69116
lfemur 24.6516 1.06898 -25.051
ltibia -0.597049 0 0
lfoot -12.3658 4.3298 0
ltoes -17.0367 0 0
rfemur -42.9004 3.92975 16.9539
rtibia 35.0099 0 0
rfoot -24.5665 -13.2811 0
rtoes -26.2908 0 0
lowerback -6.85791 -5.0327 -4.4676
upperback -0.147834 -6.43269 1.9987
thorax 4.40709 -3.30937 3.85758
lowerneck -24.1569 -2.66205 -9.9354
upperneck 23.3641 -3.11397 10.7974
head 12.0253 -0.872341 5.24513
lclavicle 3.53395e-14 5.30097e-15 0
lhumerus -22.8481 -22.1797 92.6716
lradius 32.2512 0 0
lwrist 5.40248 0 0
lhand -10.1264 -25.4897 0
lfingers 7.12502 0 0
lthumb 15.8619 3.88028 0
rclavicle 3.53395e-14 5.30097e-15 0
rhumerus -50.1485 2.13656 -80.7635
rradius 27.2747 0 0
rwrist -12.0649 0 0
rhand -28.7157 -24.024 0
rfingers 7.12502 0 0
rthumb -2.07709 -53.994 0
